<svg xmlns="http://www.w3.org/2000/svg" xmlns:xlink="http://www.w3.org/1999/xlink" width="40" zoomAndPan="magnify" viewBox="0 0 30 30.000001" height="40" preserveAspectRatio="xMidYMid meet" version="1.0"><defs><clipPath id="ab0fd896bf"><path d="M 0.484375 0 L 29.515625 0 L 29.515625 29.03125 L 0.484375 29.03125 Z M 0.484375 0 " clip-rule="nonzero"/></clipPath><clipPath id="ff7568b720"><path d="M 15 0 C 6.984375 0 0.484375 6.5 0.484375 14.515625 C 0.484375 22.53125 6.984375 29.03125 15 29.03125 C 23.015625 29.03125 29.515625 22.53125 29.515625 14.515625 C 29.515625 6.5 23.015625 0 15 0 " clip-rule="nonzero"/></clipPath><clipPath id="1183f4d147"><path d="M 6.246094 6.769531 L 23.664062 6.769531 L 23.664062 22.011719 L 6.246094 22.011719 Z M 6.246094 6.769531 " clip-rule="nonzero"/></clipPath></defs><g clip-path="url(#ab0fd896bf)"><g clip-path="url(#ff7568b720)"><path fill="#ffa500" d="M 0.484375 0 L 29.515625 0 L 29.515625 29.03125 L 0.484375 29.03125 Z M 0.484375 0 " fill-opacity="1" fill-rule="nonzero"/></g></g><g clip-path="url(#1183f4d147)"><path fill="#ffffff" d="M 23.113281 14.144531 L 18.554688 14.144531 L 18.554688 14.632812 L 23.113281 14.632812 Z M 22.601562 13.433594 L 19.066406 13.433594 L 19.066406 13.921875 L 22.601562 13.921875 Z M 22.601562 14.855469 L 19.066406 14.855469 L 19.066406 15.34375 L 22.601562 15.34375 Z M 11.359375 14.144531 L 6.796875 14.144531 L 6.796875 14.632812 L 11.359375 14.632812 Z M 10.84375 13.433594 L 7.3125 13.433594 L 7.3125 13.921875 L 10.84375 13.921875 Z M 10.84375 14.855469 L 7.3125 14.855469 L 7.3125 15.34375 L 10.84375 15.34375 Z M 18.917969 18.765625 C 19.136719 19.226562 19.082031 19.730469 18.75 19.980469 C 18.472656 20.1875 18.082031 20.171875 17.734375 19.972656 C 17.253906 19.804688 16.652344 18.96875 16.289062 18.429688 L 14.957031 16.316406 L 13.621094 18.429688 C 13.261719 18.96875 12.65625 19.804688 12.179688 19.972656 C 11.828125 20.171875 11.4375 20.1875 11.164062 19.980469 C 10.828125 19.730469 10.773438 19.226562 10.996094 18.765625 C 11.171875 18.28125 11.679688 17.664062 12.066406 17.257812 L 14.148438 15.035156 L 13.355469 13.777344 C 13.355469 13.777344 12.410156 13.78125 12.296875 13.675781 C 12.183594 13.570312 9.640625 9.832031 9.640625 9.832031 L 9.753906 9.746094 L 12.007812 12.546875 C 12.007812 12.546875 12.117188 12.691406 12.253906 12.589844 C 12.351562 12.519531 12.359375 12.457031 12.273438 12.335938 C 12.1875 12.21875 10.082031 9.5 10.082031 9.5 L 10.234375 9.386719 L 12.492188 12.183594 C 12.492188 12.183594 12.578125 12.300781 12.691406 12.234375 C 12.703125 12.226562 12.714844 12.222656 12.722656 12.214844 C 12.726562 12.210938 12.738281 12.203125 12.746094 12.191406 C 12.84375 12.101562 12.75 11.992188 12.75 11.992188 L 10.613281 9.097656 L 10.765625 8.984375 C 10.765625 8.984375 12.863281 11.707031 12.957031 11.820312 C 13.050781 11.933594 13.113281 11.941406 13.207031 11.871094 C 13.34375 11.769531 13.230469 11.621094 13.230469 11.621094 L 11.09375 8.734375 L 11.207031 8.648438 C 11.207031 8.648438 14.183594 12.058594 14.257812 12.195312 C 14.328125 12.332031 14.078125 13.230469 14.078125 13.230469 L 14.957031 14.167969 L 15.832031 13.230469 C 15.832031 13.230469 15.582031 12.332031 15.65625 12.195312 C 15.730469 12.058594 18.703125 8.648438 18.703125 8.648438 L 18.816406 8.734375 L 16.679688 11.621094 C 16.679688 11.621094 16.566406 11.769531 16.703125 11.871094 C 16.796875 11.941406 16.859375 11.933594 16.953125 11.820312 C 17.050781 11.707031 19.148438 8.984375 19.148438 8.984375 L 19.296875 9.097656 L 17.160156 11.992188 C 17.160156 11.992188 17.070312 12.101562 17.164062 12.191406 C 17.175781 12.203125 17.183594 12.210938 17.191406 12.214844 C 17.199219 12.222656 17.207031 12.226562 17.21875 12.234375 C 17.332031 12.300781 17.417969 12.183594 17.417969 12.183594 L 19.679688 9.386719 L 19.832031 9.5 C 19.832031 9.5 17.722656 12.21875 17.636719 12.335938 C 17.554688 12.457031 17.5625 12.519531 17.65625 12.589844 C 17.792969 12.691406 17.90625 12.546875 17.90625 12.546875 L 20.160156 9.746094 L 20.273438 9.832031 C 20.273438 9.832031 17.726562 13.570312 17.613281 13.675781 C 17.5 13.78125 16.558594 13.777344 16.558594 13.777344 L 15.765625 15.035156 L 17.84375 17.257812 C 18.230469 17.664062 18.738281 18.28125 18.917969 18.765625 Z M 6.550781 18.460938 L 14.957031 21.683594 L 23.359375 18.648438 L 23.359375 10.398438 L 15.167969 7.097656 L 6.550781 10.210938 Z M 14.953125 22.003906 L 6.246094 18.667969 L 6.246094 10 L 15.175781 6.773438 L 23.664062 10.195312 L 23.664062 18.859375 L 14.953125 22.003906 " fill-opacity="1" fill-rule="nonzero"/></g></svg>