<svg xmlns="http://www.w3.org/2000/svg" xmlns:xlink="http://www.w3.org/1999/xlink" width="40" zoomAndPan="magnify" viewBox="0 0 30 30.000001" height="40" preserveAspectRatio="xMidYMid meet" version="1.0"><defs><clipPath id="a8b9d657eb"><path d="M 0.484375 0 L 29.515625 0 L 29.515625 29.03125 L 0.484375 29.03125 Z M 0.484375 0 " clip-rule="nonzero"/></clipPath><clipPath id="eb0e23e170"><path d="M 15 0 C 6.984375 0 0.484375 6.5 0.484375 14.515625 C 0.484375 22.53125 6.984375 29.03125 15 29.03125 C 23.015625 29.03125 29.515625 22.53125 29.515625 14.515625 C 29.515625 6.5 23.015625 0 15 0 " clip-rule="nonzero"/></clipPath><clipPath id="fbebcfab36"><path d="M 10.167969 6.9375 L 19.40625 6.9375 L 19.40625 21.453125 L 10.167969 21.453125 Z M 10.167969 6.9375 " clip-rule="nonzero"/></clipPath></defs><g clip-path="url(#a8b9d657eb)"><g clip-path="url(#eb0e23e170)"><path fill="#ffa500" d="M 0.484375 0 L 29.515625 0 L 29.515625 29.03125 L 0.484375 29.03125 Z M 0.484375 0 " fill-opacity="1" fill-rule="nonzero"/></g></g><g clip-path="url(#fbebcfab36)"><path fill="#ffffff" d="M 15.019531 13.214844 L 14.992188 20.285156 L 15.621094 20.769531 L 16.507812 21.453125 L 14.726562 21.445312 L 12.949219 21.4375 L 13.839844 20.761719 L 14.472656 20.285156 L 14.5 13.214844 L 12.464844 10.265625 L 10.167969 6.941406 L 19.40625 6.980469 L 17.082031 10.28125 L 15.019531 13.214844 " fill-opacity="1" fill-rule="nonzero"/></g></svg>