<svg xmlns="http://www.w3.org/2000/svg" xmlns:xlink="http://www.w3.org/1999/xlink" width="40" zoomAndPan="magnify" viewBox="0 0 30 30.000001" height="40" preserveAspectRatio="xMidYMid meet" version="1.0"><defs><clipPath id="b4a641c2b6"><path d="M 0.484375 0 L 29.515625 0 L 29.515625 29.03125 L 0.484375 29.03125 Z M 0.484375 0 " clip-rule="nonzero"/></clipPath><clipPath id="71227dab43"><path d="M 15 0 C 6.984375 0 0.484375 6.5 0.484375 14.515625 C 0.484375 22.53125 6.984375 29.03125 15 29.03125 C 23.015625 29.03125 29.515625 22.53125 29.515625 14.515625 C 29.515625 6.5 23.015625 0 15 0 " clip-rule="nonzero"/></clipPath><clipPath id="58d1d42ab6"><path d="M 5.066406 7.261719 L 24.660156 7.261719 L 24.660156 21.78125 L 5.066406 21.78125 Z M 5.066406 7.261719 " clip-rule="nonzero"/></clipPath></defs><g clip-path="url(#b4a641c2b6)"><g clip-path="url(#71227dab43)"><path fill="#ffa500" d="M 0.484375 0 L 29.515625 0 L 29.515625 29.03125 L 0.484375 29.03125 Z M 0.484375 0 " fill-opacity="1" fill-rule="nonzero"/></g></g><g clip-path="url(#58d1d42ab6)"><path fill="#ffffff" d="M 24.644531 13.929688 C 24.617188 13.875 24.5625 13.84375 24.507812 13.84375 L 23.109375 13.84375 C 23.054688 11.027344 19.738281 8.722656 15.542969 8.5 L 15.542969 7.945312 C 15.542969 7.570312 15.242188 7.269531 14.871094 7.269531 C 14.5 7.269531 14.199219 7.570312 14.199219 7.945312 L 14.199219 8.5 C 10.003906 8.722656 6.6875 11.027344 6.632812 13.84375 L 5.234375 13.84375 C 5.179688 13.84375 5.125 13.875 5.097656 13.929688 C 5.070312 13.980469 5.074219 14.042969 5.105469 14.089844 L 5.796875 15.128906 C 5.824219 15.171875 5.871094 15.199219 5.925781 15.199219 L 8.714844 15.199219 C 8.570312 15.242188 8.4375 15.328125 8.351562 15.457031 C 8.238281 15.625 8.203125 15.832031 8.253906 16.027344 C 8.308594 16.222656 8.441406 16.382812 8.625 16.46875 L 10.339844 17.265625 C 11.351562 17.671875 12.398438 18.023438 13.453125 18.308594 C 14.582031 18.613281 15.738281 18.84375 16.890625 19 C 17.25 19.167969 17.574219 19.386719 17.863281 19.65625 C 18.089844 19.871094 18.289062 20.117188 18.457031 20.382812 L 18.203125 20.640625 C 18.171875 20.667969 18.15625 20.710938 18.15625 20.75 C 18.15625 20.792969 18.171875 20.835938 18.203125 20.863281 L 19.0625 21.730469 C 19.09375 21.757812 19.132812 21.773438 19.171875 21.773438 C 19.171875 21.773438 19.171875 21.773438 19.175781 21.773438 C 19.214844 21.773438 19.253906 21.757812 19.285156 21.726562 L 22.382812 18.4375 C 22.441406 18.375 22.4375 18.277344 22.378906 18.21875 L 21.519531 17.351562 C 21.457031 17.289062 21.359375 17.289062 21.300781 17.351562 L 21.070312 17.582031 L 19.328125 15.714844 C 19.128906 15.503906 18.902344 15.332031 18.652344 15.199219 L 23.816406 15.199219 C 23.871094 15.199219 23.917969 15.171875 23.945312 15.128906 L 24.636719 14.089844 C 24.667969 14.042969 24.671875 13.980469 24.644531 13.929688 Z M 14.511719 7.945312 C 14.511719 7.746094 14.671875 7.582031 14.871094 7.582031 C 15.070312 7.582031 15.230469 7.746094 15.230469 7.945312 L 15.230469 8.484375 C 15.113281 8.480469 14.992188 8.480469 14.871094 8.480469 C 14.75 8.480469 14.628906 8.480469 14.511719 8.484375 Z M 14.871094 8.792969 C 19.207031 8.792969 22.738281 11.054688 22.800781 13.84375 L 6.941406 13.84375 C 7 11.054688 10.535156 8.792969 14.871094 8.792969 Z M 11.714844 15.953125 L 11.277344 15.921875 L 9.152344 15.207031 C 9.140625 15.203125 9.128906 15.203125 9.117188 15.199219 L 11.742188 15.199219 C 11.671875 15.300781 11.628906 15.421875 11.617188 15.550781 C 11.609375 15.695312 11.644531 15.835938 11.714844 15.953125 Z M 21.410156 17.6875 L 22.050781 18.332031 L 19.167969 21.390625 L 18.53125 20.75 L 18.765625 20.519531 C 18.765625 20.515625 18.765625 20.515625 18.765625 20.515625 C 18.765625 20.515625 18.769531 20.515625 18.769531 20.515625 L 21.175781 17.917969 Z M 19.101562 15.929688 L 20.851562 17.808594 L 18.679688 20.148438 C 18.507812 19.882812 18.304688 19.640625 18.074219 19.425781 C 17.757812 19.128906 17.394531 18.882812 17 18.703125 C 16.984375 18.699219 16.972656 18.695312 16.957031 18.691406 C 15.804688 18.539062 14.65625 18.304688 13.535156 18.003906 C 12.492188 17.722656 11.457031 17.375 10.460938 16.972656 L 8.753906 16.179688 C 8.65625 16.136719 8.582031 16.046875 8.554688 15.941406 C 8.527344 15.835938 8.542969 15.726562 8.605469 15.636719 C 8.675781 15.539062 8.792969 15.484375 8.914062 15.484375 C 8.960938 15.484375 9.007812 15.492188 9.054688 15.507812 L 11.199219 16.226562 C 11.210938 16.230469 11.226562 16.234375 11.238281 16.234375 L 15.542969 16.546875 C 15.851562 16.566406 16.144531 16.683594 16.390625 16.882812 C 16.457031 16.9375 16.550781 16.925781 16.605469 16.855469 C 16.65625 16.789062 16.644531 16.6875 16.578125 16.632812 C 16.289062 16.398438 15.9375 16.257812 15.566406 16.230469 L 12.292969 15.996094 C 12.078125 15.972656 11.914062 15.78125 11.929688 15.570312 C 11.941406 15.371094 12.105469 15.210938 12.300781 15.199219 L 17.417969 15.199219 C 18.054688 15.199219 18.667969 15.464844 19.101562 15.929688 Z M 23.734375 14.882812 L 6.007812 14.882812 L 5.527344 14.160156 L 24.214844 14.160156 Z M 23.734375 14.882812 " fill-opacity="1" fill-rule="nonzero"/></g><path fill="#ffffff" d="M 8.472656 12.484375 C 8.316406 12.699219 8.167969 12.925781 8.035156 13.15625 C 7.992188 13.230469 8.019531 13.328125 8.09375 13.371094 C 8.117188 13.386719 8.144531 13.394531 8.171875 13.394531 C 8.226562 13.394531 8.277344 13.363281 8.304688 13.316406 C 8.433594 13.09375 8.570312 12.878906 8.722656 12.671875 C 8.773438 12.601562 8.757812 12.503906 8.6875 12.453125 C 8.621094 12.398438 8.523438 12.414062 8.472656 12.484375 Z M 8.472656 12.484375 " fill-opacity="1" fill-rule="nonzero"/><path fill="#ffffff" d="M 14 9.59375 C 14 9.59375 13.996094 9.59375 13.996094 9.59375 C 13.097656 9.613281 11.734375 9.820312 10.371094 10.695312 C 9.875 11.011719 9.421875 11.390625 9.019531 11.820312 C 8.960938 11.882812 8.964844 11.984375 9.027344 12.042969 C 9.054688 12.074219 9.09375 12.085938 9.132812 12.085938 C 9.171875 12.085938 9.214844 12.070312 9.246094 12.039062 C 9.628906 11.625 10.0625 11.265625 10.535156 10.960938 C 11.839844 10.125 13.140625 9.925781 14.003906 9.90625 C 14.089844 9.90625 14.15625 9.832031 14.15625 9.746094 C 14.152344 9.660156 14.082031 9.59375 14 9.59375 Z M 14 9.59375 " fill-opacity="1" fill-rule="nonzero"/><path fill="#ffffff" d="M 21.207031 12.304688 C 20.238281 11 19.042969 10.316406 18.207031 9.976562 C 18.128906 9.941406 18.039062 9.980469 18.003906 10.0625 C 17.972656 10.144531 18.011719 10.234375 18.089844 10.265625 C 18.886719 10.59375 20.03125 11.246094 20.957031 12.496094 C 21.089844 12.671875 21.210938 12.859375 21.324219 13.046875 C 21.351562 13.09375 21.40625 13.121094 21.457031 13.121094 C 21.484375 13.121094 21.511719 13.113281 21.539062 13.097656 C 21.609375 13.054688 21.632812 12.957031 21.589844 12.882812 C 21.472656 12.6875 21.34375 12.492188 21.207031 12.304688 Z M 21.207031 12.304688 " fill-opacity="1" fill-rule="nonzero"/></svg>