<svg xmlns="http://www.w3.org/2000/svg" xmlns:xlink="http://www.w3.org/1999/xlink" width="40" zoomAndPan="magnify" viewBox="0 0 30 30.000001" height="40" preserveAspectRatio="xMidYMid meet" version="1.0"><defs><clipPath id="a01eb24091"><path d="M 0.484375 0 L 29.515625 0 L 29.515625 29.03125 L 0.484375 29.03125 Z M 0.484375 0 " clip-rule="nonzero"/></clipPath><clipPath id="602e520fe5"><path d="M 15 0 C 6.984375 0 0.484375 6.5 0.484375 14.515625 C 0.484375 22.53125 6.984375 29.03125 15 29.03125 C 23.015625 29.03125 29.515625 22.53125 29.515625 14.515625 C 29.515625 6.5 23.015625 0 15 0 " clip-rule="nonzero"/></clipPath><clipPath id="997c53276a"><path d="M 6.753906 8 L 23.445312 8 L 23.445312 21 L 6.753906 21 Z M 6.753906 8 " clip-rule="nonzero"/></clipPath></defs><g clip-path="url(#a01eb24091)"><g clip-path="url(#602e520fe5)"><path fill="#ffa500" d="M 0.484375 0 L 29.515625 0 L 29.515625 29.03125 L 0.484375 29.03125 Z M 0.484375 0 " fill-opacity="1" fill-rule="nonzero"/></g></g><g clip-path="url(#997c53276a)"><path fill="#ffffff" d="M 22.941406 12.117188 C 22.621094 11.800781 21.925781 11.609375 21.441406 11.609375 L 21.117188 11.609375 C 21.230469 11.539062 21.335938 11.457031 21.429688 11.363281 L 21.445312 11.351562 C 21.542969 11.253906 21.628906 11.144531 21.703125 11.027344 C 21.90625 10.714844 22.007812 10.371094 22.011719 10 C 21.996094 9.535156 21.84375 9.121094 21.546875 8.761719 C 21.511719 8.722656 21.480469 8.6875 21.460938 8.667969 L 21.445312 8.648438 C 21.386719 8.589844 21.324219 8.539062 21.257812 8.488281 C 21.191406 8.441406 21.125 8.394531 21.054688 8.351562 C 20.714844 8.171875 20.351562 8.085938 19.96875 8.097656 C 19.796875 8.105469 19.632812 8.136719 19.472656 8.1875 C 19.152344 8.296875 18.882812 8.472656 18.65625 8.71875 C 18.429688 8.960938 18.277344 9.246094 18.199219 9.570312 C 18.167969 9.710938 18.148438 9.855469 18.148438 10 C 18.148438 10.527344 18.335938 10.980469 18.714844 11.351562 L 18.726562 11.359375 C 18.824219 11.453125 18.929688 11.535156 19.042969 11.609375 L 18.71875 11.609375 C 18.542969 11.609375 18.371094 11.636719 18.207031 11.6875 C 18.125 11.710938 18.050781 11.742188 17.976562 11.777344 L 17.957031 11.757812 C 17.945312 11.742188 17.929688 11.726562 17.917969 11.710938 L 17.902344 11.699219 C 17.722656 11.519531 17.515625 11.382812 17.28125 11.285156 C 17.046875 11.1875 16.804688 11.140625 16.550781 11.136719 C 16.296875 11.136719 16.050781 11.183594 15.816406 11.277344 C 15.578125 11.371094 15.371094 11.507812 15.1875 11.683594 L 15.171875 11.699219 C 14.964844 11.902344 14.8125 12.140625 14.714844 12.414062 C 14.617188 12.6875 14.585938 12.96875 14.617188 13.253906 C 14.648438 13.542969 14.742188 13.808594 14.894531 14.054688 C 15.050781 14.300781 15.25 14.503906 15.5 14.65625 L 15.316406 14.65625 C 14.964844 14.65625 14.644531 14.761719 14.363281 14.972656 C 14.167969 15.121094 14.015625 15.300781 13.902344 15.515625 C 13.808594 15.492188 13.710938 15.480469 13.617188 15.480469 C 13.667969 15.441406 13.714844 15.398438 13.761719 15.355469 C 13.914062 15.203125 14.03125 15.03125 14.113281 14.832031 C 14.199219 14.636719 14.242188 14.429688 14.242188 14.21875 C 14.242188 14.003906 14.203125 13.800781 14.125 13.601562 C 14.042969 13.402344 13.929688 13.226562 13.777344 13.074219 L 13.761719 13.058594 C 13.496094 12.796875 13.171875 12.644531 12.800781 12.601562 C 12.757812 12.511719 12.707031 12.429688 12.648438 12.347656 C 12.589844 12.261719 12.523438 12.179688 12.445312 12.109375 C 12.289062 11.957031 12.113281 11.839844 11.910156 11.753906 C 11.691406 11.660156 11.460938 11.609375 11.222656 11.609375 L 10.902344 11.609375 C 11.015625 11.539062 11.121094 11.453125 11.21875 11.359375 L 11.226562 11.351562 C 11.429688 11.152344 11.578125 10.917969 11.675781 10.652344 C 11.710938 10.480469 11.75 10.3125 11.789062 10.148438 L 11.792969 10.117188 C 11.792969 10.078125 11.796875 10.039062 11.796875 10 C 11.796875 9.933594 11.792969 9.867188 11.785156 9.804688 C 11.78125 9.785156 11.78125 9.765625 11.777344 9.75 L 11.757812 9.613281 C 11.753906 9.601562 11.75 9.589844 11.746094 9.578125 C 11.746094 9.566406 11.742188 9.554688 11.738281 9.546875 C 11.730469 9.511719 11.722656 9.472656 11.710938 9.4375 C 11.699219 9.410156 11.691406 9.382812 11.679688 9.359375 L 11.675781 9.347656 C 11.664062 9.316406 11.652344 9.289062 11.644531 9.265625 C 11.632812 9.234375 11.617188 9.207031 11.601562 9.175781 L 11.566406 9.101562 C 11.554688 9.078125 11.542969 9.0625 11.53125 9.042969 C 11.523438 9.03125 11.515625 9.015625 11.507812 9 C 11.496094 8.980469 11.484375 8.964844 11.46875 8.941406 C 11.445312 8.90625 11.421875 8.871094 11.390625 8.839844 C 11.386719 8.832031 11.382812 8.828125 11.378906 8.820312 C 11.375 8.8125 11.371094 8.804688 11.363281 8.796875 C 11.328125 8.753906 11.292969 8.714844 11.257812 8.683594 L 11.253906 8.675781 C 11.25 8.671875 11.246094 8.667969 11.242188 8.667969 L 11.226562 8.648438 C 11.148438 8.578125 11.070312 8.507812 10.984375 8.445312 L 10.976562 8.441406 C 10.972656 8.4375 10.972656 8.4375 10.96875 8.433594 C 10.964844 8.433594 10.960938 8.429688 10.957031 8.429688 C 10.875 8.371094 10.785156 8.320312 10.691406 8.277344 C 10.675781 8.269531 10.664062 8.265625 10.648438 8.253906 C 10.554688 8.214844 10.460938 8.179688 10.359375 8.15625 L 10.3125 8.140625 C 10.261719 8.132812 10.222656 8.128906 10.179688 8.121094 C 10.132812 8.117188 10.085938 8.109375 10.011719 8.101562 C 10 8.097656 9.988281 8.09375 9.976562 8.09375 C 9.589844 8.074219 9.230469 8.160156 8.894531 8.351562 C 8.820312 8.390625 8.75 8.4375 8.6875 8.488281 C 8.621094 8.539062 8.558594 8.59375 8.5 8.652344 L 8.484375 8.664062 C 8.421875 8.726562 8.367188 8.796875 8.316406 8.867188 C 8.171875 9.03125 8.066406 9.21875 8 9.425781 C 7.941406 9.636719 7.917969 9.847656 7.933594 10.066406 C 7.933594 10.292969 7.972656 10.511719 8.050781 10.722656 C 8.089844 10.832031 8.140625 10.929688 8.210938 11.023438 C 8.226562 11.042969 8.242188 11.058594 8.324219 11.15625 L 8.34375 11.175781 C 8.40625 11.25 8.457031 11.308594 8.5 11.355469 L 8.511719 11.367188 C 8.609375 11.457031 8.714844 11.539062 8.828125 11.609375 L 8.5 11.609375 C 8.460938 11.609375 8.414062 11.613281 8.367188 11.617188 C 8.320312 11.621094 8.273438 11.625 8.226562 11.636719 C 7.859375 11.703125 7.539062 11.867188 7.265625 12.117188 C 7.035156 12.347656 6.882812 12.621094 6.800781 12.933594 C 6.769531 13.066406 6.753906 13.203125 6.753906 13.34375 L 6.753906 17.5 C 6.753906 17.578125 6.78125 17.648438 6.839844 17.703125 C 6.894531 17.761719 6.964844 17.789062 7.042969 17.789062 L 16.578125 17.789062 C 16.585938 17.835938 16.597656 17.878906 16.609375 17.921875 C 16.621094 17.960938 16.632812 17.996094 16.648438 18.03125 L 16.660156 18.066406 C 16.75 18.304688 16.886719 18.511719 17.0625 18.695312 C 17.148438 18.78125 17.230469 18.867188 17.316406 18.949219 C 17.457031 19.085938 17.597656 19.222656 17.738281 19.367188 L 17.800781 19.425781 C 18.171875 19.792969 18.542969 20.160156 18.914062 20.527344 L 19.113281 20.726562 C 19.226562 20.851562 19.363281 20.9375 19.523438 20.984375 L 19.738281 20.984375 C 19.902344 20.9375 20.039062 20.855469 20.148438 20.726562 L 20.332031 20.542969 L 21.066406 19.820312 L 21.65625 19.234375 C 21.765625 19.128906 21.875 19.019531 21.984375 18.910156 C 22.054688 18.839844 22.128906 18.769531 22.195312 18.695312 C 22.382812 18.507812 22.519531 18.292969 22.613281 18.042969 C 22.636719 17.980469 22.65625 17.917969 22.671875 17.855469 C 22.675781 17.835938 22.679688 17.820312 22.683594 17.800781 L 23.128906 17.800781 C 23.320312 17.789062 23.429688 17.6875 23.453125 17.5 L 23.453125 13.34375 C 23.453125 12.863281 23.28125 12.457031 22.941406 12.117188 Z M 19.121094 9.066406 L 19.128906 9.058594 C 19.257812 8.933594 19.402344 8.835938 19.566406 8.769531 C 19.730469 8.703125 19.902344 8.667969 20.082031 8.667969 C 20.257812 8.667969 20.429688 8.703125 20.59375 8.769531 C 20.757812 8.835938 20.90625 8.929688 21.03125 9.054688 L 21.042969 9.070312 C 21.167969 9.195312 21.261719 9.339844 21.328125 9.503906 C 21.390625 9.664062 21.425781 9.832031 21.421875 10.007812 C 21.421875 10.183594 21.386719 10.351562 21.320312 10.511719 C 21.253906 10.675781 21.15625 10.816406 21.035156 10.941406 L 21.023438 10.953125 C 20.894531 11.074219 20.75 11.167969 20.585938 11.234375 C 20.421875 11.296875 20.25 11.332031 20.074219 11.328125 C 19.894531 11.328125 19.726562 11.292969 19.5625 11.226562 C 19.398438 11.15625 19.253906 11.0625 19.128906 10.9375 C 19.003906 10.8125 18.90625 10.671875 18.839844 10.507812 C 18.773438 10.347656 18.738281 10.179688 18.734375 10.003906 C 18.734375 9.828125 18.769531 9.660156 18.835938 9.496094 C 18.902344 9.332031 18.996094 9.191406 19.121094 9.066406 Z M 15.191406 13.046875 C 15.1875 12.679688 15.320312 12.367188 15.582031 12.105469 L 15.589844 12.097656 L 15.589844 12.09375 L 15.597656 12.089844 C 15.722656 11.96875 15.871094 11.875 16.035156 11.808594 C 16.199219 11.746094 16.367188 11.710938 16.542969 11.714844 C 16.722656 11.714844 16.890625 11.75 17.054688 11.816406 C 17.21875 11.882812 17.363281 11.980469 17.488281 12.101562 L 17.5 12.117188 C 17.558594 12.175781 17.609375 12.238281 17.65625 12.308594 C 17.660156 12.3125 17.664062 12.320312 17.667969 12.324219 C 17.707031 12.382812 17.738281 12.445312 17.765625 12.507812 C 17.773438 12.523438 17.777344 12.539062 17.785156 12.554688 L 17.792969 12.574219 C 17.8125 12.628906 17.828125 12.683594 17.839844 12.738281 C 17.847656 12.757812 17.851562 12.777344 17.855469 12.796875 L 17.855469 12.808594 C 17.871094 12.886719 17.878906 12.964844 17.882812 13.042969 C 17.878906 13.125 17.871094 13.207031 17.855469 13.285156 L 17.84375 13.347656 C 17.828125 13.410156 17.808594 13.476562 17.78125 13.539062 C 17.78125 13.542969 17.777344 13.550781 17.777344 13.558594 C 17.773438 13.5625 17.773438 13.566406 17.773438 13.570312 C 17.738281 13.644531 17.699219 13.710938 17.65625 13.777344 C 17.652344 13.785156 17.648438 13.792969 17.640625 13.800781 L 17.632812 13.8125 C 17.59375 13.867188 17.550781 13.914062 17.507812 13.960938 C 17.5 13.96875 17.492188 13.980469 17.484375 13.988281 C 17.476562 13.996094 17.46875 14.003906 17.460938 14.011719 C 17.40625 14.058594 17.351562 14.105469 17.292969 14.148438 C 17.285156 14.152344 17.277344 14.15625 17.269531 14.160156 C 17.261719 14.164062 17.253906 14.167969 17.246094 14.171875 C 17.039062 14.300781 16.8125 14.367188 16.570312 14.371094 C 16.328125 14.378906 16.097656 14.324219 15.886719 14.207031 C 15.671875 14.089844 15.503906 13.929688 15.378906 13.71875 C 15.253906 13.511719 15.191406 13.289062 15.191406 13.046875 Z M 12.410156 13.179688 C 12.773438 13.109375 13.089844 13.203125 13.351562 13.464844 L 13.363281 13.480469 C 13.511719 13.628906 13.605469 13.808594 13.640625 14.015625 C 13.679688 14.21875 13.660156 14.421875 13.574219 14.613281 C 13.492188 14.804688 13.363281 14.960938 13.1875 15.074219 C 13.007812 15.191406 12.816406 15.25 12.601562 15.246094 L 12.585938 15.246094 C 12.292969 15.242188 12.046875 15.136719 11.84375 14.929688 C 11.75 14.828125 11.675781 14.71875 11.625 14.589844 C 11.574219 14.464844 11.550781 14.332031 11.550781 14.195312 C 11.550781 14.058594 11.578125 13.925781 11.628906 13.800781 C 11.683594 13.675781 11.757812 13.5625 11.855469 13.464844 C 11.871094 13.453125 11.886719 13.441406 11.902344 13.429688 L 11.929688 13.40625 C 12.050781 13.304688 12.191406 13.234375 12.34375 13.191406 C 12.367188 13.1875 12.386719 13.183594 12.410156 13.179688 Z M 8.546875 10.277344 L 8.546875 10.261719 C 8.527344 10.175781 8.519531 10.085938 8.519531 10 C 8.519531 9.917969 8.527344 9.839844 8.542969 9.757812 L 8.558594 9.6875 C 8.570312 9.636719 8.589844 9.582031 8.609375 9.53125 C 8.617188 9.507812 8.628906 9.480469 8.640625 9.453125 C 8.664062 9.40625 8.6875 9.359375 8.714844 9.316406 C 8.722656 9.304688 8.730469 9.289062 8.734375 9.277344 C 8.742188 9.269531 8.746094 9.257812 8.753906 9.25 C 8.796875 9.1875 8.84375 9.128906 8.898438 9.070312 L 8.914062 9.058594 C 9.035156 8.9375 9.171875 8.84375 9.332031 8.777344 L 9.34375 8.773438 C 9.417969 8.742188 9.496094 8.71875 9.574219 8.699219 C 9.582031 8.699219 9.585938 8.699219 9.59375 8.695312 C 9.597656 8.695312 9.605469 8.695312 9.613281 8.695312 C 9.695312 8.675781 9.78125 8.667969 9.863281 8.667969 C 10.238281 8.667969 10.554688 8.800781 10.820312 9.0625 C 10.84375 9.085938 10.863281 9.109375 10.882812 9.136719 C 10.894531 9.148438 10.902344 9.164062 10.914062 9.175781 C 10.925781 9.1875 10.933594 9.203125 10.945312 9.214844 C 10.957031 9.226562 10.972656 9.246094 10.984375 9.257812 C 11.003906 9.289062 11.019531 9.320312 11.035156 9.351562 C 11.042969 9.367188 11.050781 9.378906 11.058594 9.394531 L 11.078125 9.429688 C 11.089844 9.449219 11.097656 9.464844 11.105469 9.480469 C 11.125 9.53125 11.144531 9.589844 11.15625 9.644531 C 11.160156 9.65625 11.164062 9.667969 11.167969 9.683594 C 11.175781 9.699219 11.179688 9.714844 11.183594 9.734375 C 11.199219 9.816406 11.210938 9.902344 11.210938 9.988281 C 11.210938 9.996094 11.210938 10 11.210938 10 C 11.210938 10.082031 11.203125 10.167969 11.183594 10.25 C 11.183594 10.253906 11.183594 10.261719 11.183594 10.265625 C 11.179688 10.269531 11.179688 10.273438 11.179688 10.277344 C 11.140625 10.453125 11.074219 10.609375 10.972656 10.757812 C 10.871094 10.902344 10.746094 11.023438 10.59375 11.117188 C 10.445312 11.214844 10.28125 11.277344 10.105469 11.3125 C 9.929688 11.34375 9.757812 11.339844 9.582031 11.304688 C 9.328125 11.25 9.109375 11.132812 8.921875 10.957031 L 8.910156 10.941406 C 8.722656 10.757812 8.601562 10.535156 8.546875 10.277344 Z M 10.46875 16.074219 C 10.371094 16.21875 10.304688 16.375 10.265625 16.542969 C 10.242188 16.636719 10.234375 16.734375 10.234375 16.828125 L 10.234375 17.210938 L 7.335938 17.210938 L 7.335938 13.339844 C 7.335938 13.019531 7.449219 12.75 7.679688 12.523438 C 7.769531 12.4375 7.871094 12.367188 7.984375 12.3125 C 8.148438 12.234375 8.320312 12.191406 8.5 12.1875 L 11.226562 12.1875 C 11.472656 12.1875 11.699219 12.257812 11.898438 12.402344 C 11.996094 12.46875 12.082031 12.550781 12.152344 12.644531 C 12.09375 12.660156 12.03125 12.679688 11.972656 12.707031 C 11.96875 12.707031 11.964844 12.710938 11.960938 12.714844 C 11.953125 12.714844 11.949219 12.71875 11.941406 12.722656 C 11.863281 12.753906 11.792969 12.796875 11.722656 12.839844 L 11.664062 12.878906 C 11.585938 12.929688 11.519531 12.984375 11.453125 13.050781 L 11.445312 13.058594 C 11.289062 13.210938 11.171875 13.382812 11.089844 13.582031 C 11.003906 13.78125 10.960938 13.988281 10.960938 14.203125 C 10.960938 14.417969 11.003906 14.625 11.089844 14.824219 C 11.171875 15.023438 11.289062 15.199219 11.445312 15.351562 C 11.488281 15.398438 11.539062 15.4375 11.585938 15.480469 C 11.5 15.480469 11.414062 15.488281 11.332031 15.503906 C 10.96875 15.585938 10.683594 15.777344 10.46875 16.074219 Z M 14.386719 17.210938 L 10.820312 17.210938 L 10.820312 16.832031 C 10.820312 16.777344 10.824219 16.726562 10.835938 16.675781 C 10.867188 16.523438 10.9375 16.390625 11.046875 16.28125 L 11.058594 16.273438 C 11.09375 16.238281 11.132812 16.207031 11.171875 16.179688 C 11.300781 16.097656 11.445312 16.054688 11.601562 16.054688 L 13.605469 16.054688 C 13.738281 16.058594 13.859375 16.089844 13.976562 16.15625 C 14.015625 16.175781 14.054688 16.203125 14.089844 16.230469 C 14.097656 16.238281 14.105469 16.242188 14.113281 16.246094 C 14.121094 16.253906 14.132812 16.261719 14.140625 16.269531 C 14.1875 16.3125 14.226562 16.359375 14.261719 16.414062 L 14.277344 16.4375 C 14.304688 16.484375 14.324219 16.535156 14.34375 16.585938 C 14.351562 16.605469 14.355469 16.621094 14.359375 16.636719 C 14.378906 16.699219 14.386719 16.765625 14.386719 16.832031 Z M 16.554688 17.085938 L 16.535156 17.210938 L 14.972656 17.210938 L 14.972656 16.832031 C 14.972656 16.75 14.964844 16.671875 14.949219 16.59375 C 14.945312 16.578125 14.941406 16.566406 14.9375 16.554688 C 14.9375 16.546875 14.933594 16.535156 14.933594 16.527344 C 14.921875 16.46875 14.902344 16.414062 14.878906 16.355469 L 14.859375 16.300781 C 14.832031 16.234375 14.800781 16.171875 14.761719 16.113281 L 14.753906 16.105469 C 14.738281 16.082031 14.722656 16.058594 14.703125 16.035156 C 14.695312 16.023438 14.683594 16.011719 14.671875 15.996094 C 14.660156 15.984375 14.652344 15.976562 14.644531 15.960938 C 14.628906 15.941406 14.617188 15.925781 14.597656 15.90625 C 14.597656 15.902344 14.59375 15.898438 14.589844 15.894531 L 14.574219 15.878906 C 14.542969 15.847656 14.507812 15.820312 14.472656 15.796875 C 14.464844 15.789062 14.457031 15.78125 14.449219 15.773438 C 14.445312 15.765625 14.4375 15.761719 14.429688 15.753906 C 14.503906 15.625 14.597656 15.519531 14.714844 15.429688 C 14.894531 15.300781 15.097656 15.234375 15.320312 15.230469 L 17.753906 15.230469 C 17.875 15.230469 17.992188 15.253906 18.105469 15.296875 C 18.210938 15.335938 18.300781 15.390625 18.382812 15.464844 C 18.109375 15.480469 17.851562 15.546875 17.605469 15.667969 C 17.597656 15.667969 17.59375 15.675781 17.585938 15.679688 C 16.996094 15.972656 16.652344 16.441406 16.554688 17.085938 Z M 22.0625 17.878906 C 21.996094 18.042969 21.898438 18.183594 21.773438 18.308594 C 21.289062 18.796875 20.789062 19.289062 20.308594 19.765625 C 20.09375 19.972656 19.882812 20.183594 19.667969 20.394531 C 19.636719 20.429688 19.636719 20.433594 19.59375 20.394531 L 18.972656 19.78125 C 18.476562 19.292969 17.980469 18.804688 17.488281 18.308594 C 17.378906 18.195312 17.289062 18.070312 17.222656 17.929688 C 17.097656 17.652344 17.074219 17.363281 17.148438 17.070312 L 17.164062 17.050781 L 17.164062 17.003906 C 17.167969 16.996094 17.171875 16.988281 17.171875 16.980469 C 17.1875 16.9375 17.203125 16.898438 17.222656 16.855469 C 17.234375 16.820312 17.25 16.789062 17.257812 16.769531 L 17.28125 16.722656 C 17.402344 16.488281 17.578125 16.3125 17.816406 16.195312 C 17.832031 16.1875 17.847656 16.183594 17.867188 16.171875 L 17.894531 16.160156 C 17.925781 16.144531 17.953125 16.132812 17.984375 16.125 C 18.058594 16.09375 18.136719 16.074219 18.214844 16.0625 C 18.277344 16.050781 18.335938 16.042969 18.402344 16.035156 C 18.421875 16.035156 18.441406 16.035156 18.460938 16.035156 C 18.507812 16.035156 18.550781 16.039062 18.59375 16.042969 C 18.777344 16.0625 18.949219 16.109375 19.109375 16.195312 L 19.125 16.199219 C 19.222656 16.257812 19.3125 16.324219 19.398438 16.398438 L 19.421875 16.421875 C 19.441406 16.4375 19.464844 16.457031 19.488281 16.46875 L 19.507812 16.480469 C 19.511719 16.484375 19.515625 16.488281 19.523438 16.488281 L 19.59375 16.511719 L 19.742188 16.503906 L 19.777344 16.46875 C 19.800781 16.453125 19.824219 16.4375 19.84375 16.421875 L 19.867188 16.402344 C 19.945312 16.328125 20.035156 16.261719 20.128906 16.207031 L 20.15625 16.195312 C 20.320312 16.105469 20.5 16.054688 20.6875 16.039062 C 20.746094 16.035156 20.808594 16.035156 20.867188 16.035156 C 20.925781 16.042969 20.988281 16.050781 21.054688 16.0625 C 21.132812 16.074219 21.210938 16.097656 21.285156 16.125 C 21.3125 16.136719 21.339844 16.144531 21.367188 16.15625 L 21.398438 16.171875 C 21.410156 16.179688 21.429688 16.1875 21.449219 16.195312 C 21.691406 16.316406 21.875 16.5 21.996094 16.742188 L 22.035156 16.832031 C 22.046875 16.871094 22.0625 16.90625 22.078125 16.941406 L 22.082031 16.984375 L 22.109375 17.046875 C 22.1875 17.328125 22.171875 17.605469 22.0625 17.878906 Z M 22.707031 17.085938 C 22.691406 16.988281 22.667969 16.890625 22.636719 16.792969 C 22.476562 16.289062 22.160156 15.917969 21.683594 15.679688 L 21.652344 15.664062 C 21.410156 15.546875 21.152344 15.480469 20.882812 15.464844 C 20.851562 15.464844 20.820312 15.464844 20.789062 15.464844 C 20.695312 15.464844 20.601562 15.46875 20.507812 15.484375 C 20.210938 15.527344 19.941406 15.636719 19.699219 15.808594 C 19.683594 15.816406 19.671875 15.824219 19.660156 15.835938 C 19.648438 15.839844 19.640625 15.847656 19.628906 15.851562 C 19.625 15.847656 19.625 15.847656 19.621094 15.84375 C 19.601562 15.832031 19.582031 15.820312 19.5625 15.808594 C 19.421875 15.710938 19.269531 15.632812 19.105469 15.574219 L 19.105469 15.554688 C 19.085938 15.417969 19.035156 15.296875 18.945312 15.1875 C 18.945312 15.1875 18.917969 15.152344 18.882812 15.117188 C 18.570312 14.808594 18.195312 14.652344 17.753906 14.652344 L 17.574219 14.652344 C 17.617188 14.628906 17.652344 14.601562 17.691406 14.574219 L 17.734375 14.539062 C 17.792969 14.496094 17.847656 14.445312 17.886719 14.410156 L 17.898438 14.398438 C 17.949219 14.347656 17.996094 14.296875 18.039062 14.242188 C 18.046875 14.234375 18.054688 14.222656 18.058594 14.214844 C 18.097656 14.167969 18.132812 14.121094 18.164062 14.070312 L 18.171875 14.054688 C 18.175781 14.050781 18.183594 14.042969 18.183594 14.035156 L 18.191406 14.027344 C 18.214844 13.988281 18.234375 13.949219 18.253906 13.910156 C 18.265625 13.890625 18.277344 13.871094 18.289062 13.847656 L 18.289062 13.839844 C 18.292969 13.835938 18.292969 13.828125 18.296875 13.824219 C 18.296875 13.820312 18.300781 13.816406 18.300781 13.8125 C 18.335938 13.738281 18.363281 13.664062 18.386719 13.589844 C 18.390625 13.574219 18.394531 13.5625 18.394531 13.546875 C 18.414062 13.484375 18.429688 13.417969 18.4375 13.355469 C 18.441406 13.34375 18.441406 13.332031 18.445312 13.320312 C 18.445312 13.308594 18.445312 13.300781 18.449219 13.289062 C 18.460938 13.207031 18.464844 13.125 18.464844 13.042969 C 18.464844 12.960938 18.460938 12.875 18.449219 12.792969 C 18.449219 12.78125 18.445312 12.773438 18.441406 12.765625 C 18.441406 12.753906 18.441406 12.742188 18.4375 12.730469 C 18.425781 12.65625 18.410156 12.582031 18.386719 12.507812 C 18.386719 12.507812 18.386719 12.503906 18.386719 12.5 L 18.382812 12.488281 L 18.382812 12.484375 L 18.378906 12.46875 C 18.355469 12.402344 18.328125 12.332031 18.296875 12.265625 C 18.324219 12.253906 18.351562 12.246094 18.378906 12.238281 C 18.488281 12.203125 18.601562 12.1875 18.71875 12.1875 L 21.441406 12.1875 C 22.089844 12.1875 22.871094 12.703125 22.871094 13.339844 L 22.871094 16.804688 L 22.875 16.808594 L 22.875 17.230469 L 22.726562 17.230469 Z M 22.707031 17.085938 " fill-opacity="1" fill-rule="nonzero"/></g></svg>